<svg width="105" height="105" viewBox="0 0 105 105" fill="none" xmlns="http://www.w3.org/2000/svg">
<path d="M6.5555 47.481C6.6535 39.396 8.96 32.13 14.4935 26.131C16.1385 24.3425 18.13 22.8655 19.9955 21.2905C20.2685 21.0595 20.7375 21.063 21.1155 20.958C21.2476 21.3321 21.3323 21.7213 21.3675 22.1165C21.2905 25.1685 20.881 28.245 21.14 31.2655C21.6615 37.2645 24.5735 42.357 27.972 47.1765C31.633 52.3705 35.4585 57.456 38.969 62.748C42.0455 67.389 44.639 72.331 45.7205 77.882C46.529 82.0295 46.116 85.932 42.5705 88.809C39.2665 91.4865 35.5355 91.7455 31.626 90.37C26.9115 88.711 23.226 85.589 19.936 81.9525C14.4515 75.901 10.8045 68.838 8.673 60.9945C7.98829 58.4022 7.43921 55.776 7.028 53.1265C6.713 51.2575 6.699 49.35 6.5555 47.481Z" fill="black"/>
<path d="M61.6 61.7435C61.649 70.4935 58.9715 78.148 52.745 84.4165C51.5684 85.5651 50.3173 86.6349 49 87.619C48.5765 87.9445 47.9255 87.969 47.376 88.1475C47.25 87.591 46.9525 87.0135 47.026 86.4815C47.5335 82.712 47.551 78.9845 46.634 75.25C45.3145 69.867 42.539 65.254 39.2525 60.9C34.048 54.0155 28.854 47.1205 25.172 39.2595C23.4955 35.7 22.1165 32.06 22.2145 28.021C22.237 26.639 22.5489 25.2771 23.1299 24.023C23.7109 22.7689 24.5483 21.6504 25.5879 20.7396C26.6276 19.8289 27.8466 19.1461 29.1663 18.7352C30.4859 18.3243 31.8771 18.1944 33.25 18.354C37.9995 18.8335 41.748 21.3185 45.15 24.3705C51.9925 30.506 56.4165 38.178 59.15 46.893C60.6997 51.694 61.5254 56.6991 61.6 61.7435Z" fill="black"/>
<path d="M51.156 29.2916L49.455 27.7166C51.555 26.4286 53.445 25.1126 55.475 24.1116C56.672 23.5201 57.05 22.9811 56.4795 21.7771C56.2313 21.116 56.0278 20.439 55.8705 19.7506L64.288 20.2021C64.1305 19.7541 63.959 19.2711 63.8155 18.8721C66.2655 18.7181 68.7155 18.3856 71.1375 18.4766C73.0458 18.5788 74.9306 18.9463 76.7375 19.5686C78.5715 20.1741 79.324 20.2196 80.5875 18.7566C81.5745 17.5981 82.7225 16.8281 84.3605 16.6846C84.602 17.6891 84.826 18.6306 85.0605 19.6001L81.4765 20.3421V20.8286C81.8265 20.9546 82.1765 21.0876 82.544 21.1996C85.078 21.9836 87.5385 22.7991 89.194 25.1791C89.6455 25.8301 90.79 26.0401 91.644 26.3621C92.2506 26.5452 92.8693 26.6856 93.4955 26.7821L93.177 27.1636C93.506 27.7096 93.7335 28.3571 94.178 28.7841C96.1275 30.6566 96.943 33.1276 97.804 35.5601C97.902 35.8436 97.4855 36.5611 97.16 36.6871C96.32 37.0056 96.3235 37.4466 96.46 38.2131C97.16 41.9616 97.8145 45.7206 98.469 49.4796C98.4548 49.6833 98.4148 49.8844 98.35 50.0781C97.853 49.9521 97.328 49.9346 96.95 49.6931C95.788 48.9721 95.48 49.5671 95.55 50.5856C95.6305 52.0311 95.816 53.4696 95.963 54.9886L94.458 54.2501C94.458 55.3211 94.4125 56.2416 94.458 57.1586C94.5689 59.6124 94.1524 62.0614 93.2365 64.3406C92.6555 65.8596 92.372 67.4906 91.9205 69.1986L89.999 67.7986C89.859 68.6526 89.8555 69.2651 89.649 69.8076C89.0855 71.3441 88.599 72.9331 87.7975 74.3576C86.5235 76.6536 84.98 78.8061 85.064 81.9176L82.985 80.1081C82.75 80.3095 82.547 80.5456 82.383 80.8081C81.375 83.2931 79.604 84.9836 77.217 86.1736C76.167 86.6986 75.2675 87.5736 74.235 88.3191L73.752 87.2306L64.4595 91.3501C63.847 90.2476 63.4305 88.7881 62.4715 87.9271C60.942 86.5516 60.0215 88.2771 59.0415 89.1521C56.5495 87.7521 54.0085 84.7806 54.4915 83.7236C55.3665 84.6511 56.161 85.6276 57.0955 86.4396C57.6205 86.8946 58.6985 87.5141 58.9645 87.3146C59.7157 86.7679 60.2538 85.9774 60.487 85.0781C60.6323 84.3695 60.6027 83.6361 60.4008 82.9415C60.199 82.2469 59.8309 81.6119 59.3285 81.0916C58.66 80.3601 58.5235 79.1351 58.093 77.9871C58.877 78.3581 59.528 78.9321 59.9375 78.7921C60.4415 78.6206 60.7775 77.8786 61.1275 77.3466C61.719 76.4366 62.265 75.5021 62.825 74.5746C64.253 72.2051 64.197 71.4561 62.4435 69.2546C61.628 68.2326 61.628 68.2326 62.1285 66.6646L65.4745 71.7501C68.4285 67.4661 73.2515 64.7991 74.7145 59.5001C74.9665 58.5831 74.9945 57.9741 74.2245 57.2706C73.2486 56.314 72.3377 55.2932 71.498 54.2151C70.9765 53.5886 70.448 53.5781 69.965 54.1521C69.034 55.2546 68.1555 56.4061 67.312 57.4666C67.277 57.2846 67.179 56.7841 67.0285 56.0001L62.3 58.9856L62.0025 58.9156C62.3035 58.3346 62.4645 57.5646 62.9335 57.2181C63.91 56.5181 65.0825 56.0491 66.122 55.4051C67.1188 54.7845 68.0837 54.1139 69.013 53.3961C69.9475 52.6786 70.063 51.8246 69.6745 50.6521C69.0585 48.8076 68.7225 46.8651 68.1835 44.6076L65.331 47.3551C63.504 46.9036 62.3665 48.6466 60.5185 48.5276C60.7968 48.182 61.1139 47.8697 61.4635 47.5966C63.0175 46.6306 64.6415 45.7731 66.1605 44.7546C66.9138 44.1882 67.5954 43.5324 68.1905 42.8016C68.999 41.9091 69.286 40.9536 68.7995 39.6971C68.3375 38.5071 68.2185 37.1841 67.893 35.6581L65.8735 38.8781L65.597 38.7696L66.85 34.6291L66.633 34.3911C66.1901 34.7097 65.7648 35.052 65.359 35.4166C63.98 36.7606 62.6955 38.2166 61.2395 39.4661C60.1895 40.3796 59.9655 41.5066 59.9095 42.7351C59.8535 43.9636 59.9095 45.2376 59.9095 46.8861C59.598 45.7766 59.3845 45.0206 59.1745 44.2681C58.8245 43.0046 59.4265 41.3526 57.596 40.7436C58.8595 39.8966 60.0775 39.2106 61.138 38.3321C62.1985 37.4536 63.1155 36.3616 64.092 35.3676L63.882 35.0386L60.8475 36.2006C60.291 34.0516 59.7275 31.8851 59.0975 29.4876L55.44 32.0041C56.259 29.6451 58.3345 28.7526 59.8045 27.2931C57.0045 28.2206 55.111 30.2366 53.2805 32.6201C52.5 31.4091 51.8 30.3276 51.1 29.2426C53.004 29.9426 54.719 29.9426 56.175 28.1926C56.6895 27.5731 57.575 27.2441 58.275 26.7926C58.688 26.5336 59.122 26.3061 59.5735 26.0471C58.2995 24.5736 57.3685 24.3671 55.7585 25.2456C54.5074 25.8961 53.3102 26.6451 52.178 27.4856C51.6845 27.8916 51.492 28.7001 51.156 29.2916ZM76.111 59.6751C75.306 61.3236 74.7565 62.8531 73.8675 64.1446C73.5089 64.6102 73.2969 65.1719 73.2582 65.7583C73.2196 66.3447 73.3561 66.9294 73.6505 67.4381C74.1605 68.5484 74.8187 69.5845 75.607 70.5181C77.9555 73.0766 80.43 75.5161 82.838 78.0221C83.559 78.7746 84.0875 78.4946 84.5145 77.7666C85.0885 76.7936 85.5645 75.7576 86.142 74.7916C88.8545 70.3361 88.592 67.2071 85.1585 63.3361C84.273 62.3421 83.328 61.4041 82.411 60.4381L82.061 60.6271L82.537 63.1156L82.376 63.1751L80.15 59.5001C79.45 60.4171 78.813 61.2501 78.1095 62.1496L76.111 59.6751ZM77.924 60.5466C79.009 59.0941 79.996 57.7921 80.9655 56.4761C82.0155 55.0376 83.153 53.6446 84.0945 52.1326C85.1445 50.4736 84.7945 49.4411 83.37 48.1041C81.088 45.9831 78.876 43.7991 78.022 40.6316C77.917 40.2501 77.441 39.9736 77.14 39.6446C76.79 39.9946 76.3315 40.2606 76.16 40.6631C75.712 41.7131 75.39 42.8366 75.019 43.9251L74.7985 43.8936V41.9266L74.4275 41.6361C73.906 42.2696 73.332 42.8681 72.8735 43.5436C72.1175 44.6636 71.456 43.7781 70.6475 43.3581C70.518 43.9741 70.2695 44.4851 70.3395 44.9471C70.6265 46.8406 70.574 48.9581 71.449 50.5471C73.3355 54.0156 75.7155 57.2041 77.924 60.5501V60.5466ZM86.8875 39.8371C85.463 38.7521 84.231 37.7371 82.936 36.8376C80.8745 35.3816 80.857 35.4096 79.3065 37.3836C79.0694 37.6105 78.8538 37.8589 78.6625 38.1256C78.4947 38.3947 78.4289 38.7151 78.477 39.0286C78.8865 40.1766 79.24 41.3806 79.8595 42.4166C83.223 48.0166 88.816 50.4666 94.5595 52.6611C94.934 50.2741 93.6845 45.0836 92.421 42.2871C91.273 39.7426 89.3655 38.8396 86.723 38.8326C86.779 39.1336 86.8175 39.3926 86.8875 39.8371ZM90.517 67.0391C92.211 64.2671 93.1105 61.6596 93.289 58.7861C93.4469 56.8781 92.8927 54.9793 91.7332 53.4559C90.5737 51.9325 88.8911 50.8925 87.01 50.5366C86.6191 50.5156 86.227 50.5379 85.841 50.6031L86.821 53.1826L86.625 53.2701L85.3335 52.1186C84.448 53.4381 83.615 54.6316 82.8415 55.8601C82.068 57.0886 81.963 58.3276 83.1075 59.4476C84.483 60.7916 85.8725 62.1251 87.22 63.5006C88.2945 64.5961 89.313 65.7441 90.517 67.0391ZM65.9015 26.9501L65.695 26.5231L68.1205 24.9026C65.212 24.7661 62.818 25.7461 61.187 28.0911C59.871 29.9811 60.4345 32.0671 61.0645 34.0411C61.138 34.2791 61.81 34.5171 62.1425 34.4506C63.434 34.1881 64.6975 33.8101 65.968 33.4601C69.4431 32.5287 72.6209 30.721 75.1975 28.2101C76.5975 26.8591 76.027 25.6866 74.5325 24.8501C73.8325 24.4616 72.7825 24.4651 71.9635 24.6121C71.0115 24.7836 70.1295 25.3121 69.209 25.6831C68.11 26.1416 67.004 26.5441 65.9015 26.9501ZM71.6555 80.9936L68.6 83.4436L67.9945 81.6936L67.5115 81.9001C67.4345 80.8011 67.5115 79.7056 67.2525 78.7011C66.8442 77.352 66.3401 76.0338 65.744 74.7566C65.233 73.5491 64.6065 73.4966 63.8855 74.6481C63.091 75.9221 62.4855 77.3081 61.663 78.5716C60.9385 79.6986 60.711 80.8501 61.243 82.0471C62.1344 84.1646 63.1392 86.2326 64.253 88.2421C64.5645 88.7846 65.7615 89.2921 66.353 89.1171C68.0606 88.641 69.6891 87.9169 71.1865 86.9681C73.4615 85.4386 73.57 83.4751 71.6555 81.0006V80.9936ZM69.069 81.5501C71.225 80.2481 73.122 79.2051 74.9035 77.9871C75.859 77.3361 76.6535 76.4191 77.448 75.5721C78.0605 74.9281 78.0745 74.2736 77.329 73.6436C76.4015 72.8596 75.5195 72.0196 74.5815 71.1726L73.262 72.3346C74.0285 70.2346 73.318 68.5336 71.9915 66.6681C70.5915 68.0051 69.1915 69.1426 68.061 70.4796C67.5059 71.1512 67.2324 72.0117 67.298 72.8806C67.7425 75.6841 68.418 78.4631 69.069 81.5501ZM76.2755 28.7701C74.5255 30.1036 72.5515 31.5316 70.6755 33.0611C70.2485 33.4111 70.056 34.0936 69.8635 34.6606C68.789 37.8456 70.399 40.3866 71.7535 42.8226C73.654 40.9466 75.544 39.0951 77.4165 37.2226C77.9135 36.7256 78.5225 36.2426 78.7675 35.6266C79.0417 34.9726 79.0691 34.2412 78.8445 33.5686C78.1025 31.9131 77.1505 30.3626 76.2755 28.7596V28.7701ZM85.267 27.7201L84.6545 27.9651L86.52 31.2901C84.77 29.5716 83.1005 27.8811 81.3715 26.2536C80.6365 25.5536 79.7335 25.3401 78.7745 25.9036C77.742 26.5126 77.8225 27.4226 78.127 28.3781C78.2705 28.8226 78.4385 29.2636 78.617 29.6976C79.877 32.7496 82.1625 34.9091 84.945 36.4806C86.625 37.4291 88.508 38.1186 90.79 37.5971L85.267 27.7201ZM78.9215 75.6001C77.4865 76.9336 76.3105 78.4001 74.795 79.3311C73.2795 80.2621 73.1325 81.1826 73.5875 82.7646C74.6585 86.4816 74.578 86.5061 77.9065 84.5776C81.9455 82.2221 82.376 77.9171 78.9215 75.6001ZM96.39 48.1741C96.74 47.7471 96.8555 47.6701 96.8485 47.6071C96.46 43.5821 96.124 39.5396 94.3985 35.8086C93.2925 33.4391 91.196 32.2036 88.711 31.3846C89.4807 33.3159 90.4795 35.1479 91.686 36.8411C92.288 37.6356 92.834 38.0451 92.127 38.5176C93.107 41.0376 93.9855 43.3896 94.9515 45.7066C95.2735 46.5151 95.837 47.2501 96.39 48.1636V48.1741ZM71.54 21.6091L71.7325 21.0736C72.541 21.3221 73.3425 21.6021 74.165 21.8051C74.473 21.8856 74.9945 21.9171 75.1205 21.7491C75.285 21.5251 75.2955 20.8881 75.1205 20.7691C74.361 20.2301 73.563 19.5651 72.6915 19.4041C71.4595 19.1731 70.154 19.2956 68.8835 19.3621C67.788 19.4181 66.6995 19.6036 65.5445 19.7401C66.332 21.8716 71.463 23.6706 73.2025 22.5576L71.54 21.6091ZM57.75 21.1156C58.023 22.9881 58.891 24.2201 60.424 24.9656C61.124 25.3156 61.908 25.8686 62.293 24.5351C62.349 24.3461 62.8985 24.2376 63.231 24.1851C63.7722 24.1746 64.3135 24.1991 64.8515 24.2586L63.42 22.9601L63.5915 22.6416L67.1125 23.7266L67.207 23.3311C64.4 21.4516 61.25 21.0526 57.75 21.1156ZM89.8135 27.4401C86.4255 24.2901 83.4715 23.1876 81.8895 24.4686C83.412 25.5571 84.8995 26.6981 86.464 27.7201C87.5875 28.4551 88.7355 28.3501 89.8135 27.4401ZM96.5335 35.8751C96.138 33.1976 93.8 30.1001 91.8015 29.3686C90.8845 29.0186 89.9955 29.0186 89.621 29.7501L96.5335 35.8751ZM81.809 19.8311L84.021 18.6901L83.65 18.0076C83.0235 18.3891 82.3935 18.7706 81.7705 19.1556C81.7645 19.3814 81.7774 19.6074 81.809 19.8311Z" fill="black"/>
</svg>
