<svg width="254" height="254" viewBox="0 0 254 254" fill="none" xmlns="http://www.w3.org/2000/svg">
<path d="M15.8581 114.859C16.0952 95.3008 21.6747 77.724 35.0605 63.2121C39.0398 58.8857 43.8574 55.3127 48.3701 51.5027C49.0305 50.9439 50.165 50.9524 51.0794 50.6984C51.3991 51.6034 51.6039 52.5449 51.689 53.5009C51.5028 60.8838 50.5122 68.326 51.1387 75.6327C52.4002 90.1446 59.4445 102.464 67.6656 114.122C76.5218 126.687 85.7758 138.989 94.2679 151.79C101.71 163.017 107.984 174.972 110.6 188.4C112.556 198.433 111.557 207.874 102.98 214.833C94.9875 221.31 85.9621 221.937 76.5048 218.609C65.1002 214.596 56.1848 207.044 48.2262 198.247C34.9589 183.608 26.1366 166.522 20.9804 147.549C19.3241 141.278 17.9959 134.925 17.0011 128.516C16.2391 123.994 16.2052 119.38 15.8581 114.859Z" fill="#E0E0E0"/>
<path d="M149.013 149.36C149.132 170.527 142.655 189.044 127.593 204.208C124.746 206.986 121.72 209.574 118.533 211.955C117.509 212.742 115.934 212.801 114.605 213.233C114.3 211.887 113.58 210.49 113.758 209.203C114.986 200.084 115.028 191.067 112.81 182.033C109.618 169.012 102.904 157.853 94.9537 147.32C82.3638 130.666 69.7992 113.987 60.8923 94.9706C56.8368 86.36 53.5009 77.5547 53.738 67.7841C53.7925 64.441 54.5468 61.1465 55.9524 58.1127C57.3579 55.0789 59.3834 52.3733 61.8985 50.1701C64.4135 47.967 67.3622 46.3152 70.5546 45.3213C73.747 44.3273 77.1122 44.0132 80.4334 44.3992C91.9226 45.5591 100.99 51.5705 109.22 58.9534C125.772 73.7955 136.474 92.3544 143.087 113.436C146.836 125.05 148.833 137.158 149.013 149.36Z" fill="#E0E0E0"/>
<path d="M123.749 70.8575L119.634 67.0475C124.714 63.9318 129.286 60.7483 134.197 58.3269C137.092 56.896 138.007 55.5921 136.627 52.6796C136.026 51.0804 135.534 49.4426 135.153 47.7774L155.516 48.8696C155.135 47.7859 154.72 46.6175 154.373 45.6523C160.299 45.2797 166.226 44.4754 172.085 44.6955C176.701 44.9427 181.261 45.8318 185.632 47.3371C190.068 48.8019 191.889 48.9119 194.945 45.3729C197.333 42.5704 200.11 40.7077 204.072 40.3606C204.656 42.7905 205.198 45.0681 205.765 47.4133L197.096 49.2083V50.3851C197.942 50.6899 198.789 51.0117 199.678 51.2826C205.808 53.1791 211.76 55.1519 215.765 60.9092C216.857 62.484 219.625 62.992 221.691 63.7709C223.159 64.214 224.655 64.5535 226.17 64.7869L225.4 65.7098C226.195 67.0306 226.746 68.5969 227.821 69.6299C232.537 74.1595 234.51 80.137 236.593 86.0213C236.83 86.7071 235.822 88.4428 235.035 88.7476C233.003 89.5181 233.011 90.5849 233.341 92.4391C235.035 101.507 236.618 110.6 238.201 119.693C238.167 120.186 238.07 120.673 237.913 121.141C236.711 120.836 235.441 120.794 234.527 120.21C231.716 118.466 230.971 119.905 231.14 122.369C231.335 125.865 231.783 129.345 232.139 133.02L228.498 131.233C228.498 133.824 228.388 136.051 228.498 138.269C228.767 144.205 227.759 150.129 225.544 155.643C224.138 159.317 223.452 163.263 222.36 167.394L217.712 164.008C217.373 166.074 217.365 167.555 216.865 168.868C215.502 172.585 214.325 176.428 212.386 179.874C209.304 185.428 205.571 190.635 205.774 198.162L200.745 193.785C200.176 194.272 199.685 194.843 199.288 195.478C196.85 201.49 192.566 205.579 186.792 208.458C184.252 209.728 182.076 211.844 179.578 213.648L178.41 211.015L155.931 220.98C154.449 218.313 153.441 214.782 151.122 212.7C147.422 209.372 145.195 213.546 142.824 215.663C136.796 212.276 130.649 205.088 131.818 202.531C133.934 204.775 135.856 207.137 138.117 209.101C139.387 210.202 141.994 211.701 142.638 211.218C144.455 209.895 145.757 207.983 146.321 205.808C146.672 204.094 146.601 202.32 146.113 200.639C145.624 198.959 144.734 197.423 143.518 196.164C141.901 194.395 141.571 191.431 140.53 188.654C142.426 189.552 144.001 190.94 144.992 190.602C146.211 190.187 147.024 188.392 147.87 187.105C149.301 184.904 150.622 182.643 151.977 180.399C155.431 174.667 155.296 172.855 151.054 167.53C149.081 165.058 149.081 165.058 150.292 161.265L158.386 173.567C165.532 163.203 177.199 156.752 180.738 143.933C181.348 141.715 181.415 140.242 179.553 138.54C177.192 136.226 174.988 133.757 172.957 131.149C171.696 129.633 170.417 129.608 169.249 130.996C166.997 133.663 164.871 136.449 162.831 139.014C162.746 138.574 162.509 137.363 162.145 135.467L150.707 142.689L149.987 142.519C150.715 141.114 151.105 139.251 152.239 138.413C154.601 136.72 157.438 135.585 159.952 134.027C162.364 132.526 164.698 130.904 166.946 129.167C169.206 127.432 169.486 125.366 168.546 122.53C167.056 118.068 166.243 113.369 164.939 107.908L158.039 114.554C153.619 113.462 150.868 117.678 146.397 117.39C147.07 116.554 147.837 115.799 148.683 115.138C152.442 112.801 156.371 110.727 160.045 108.263C161.868 106.893 163.517 105.307 164.956 103.539C166.912 101.38 167.606 99.0685 166.429 96.0289C165.312 93.1503 165.024 89.9499 164.236 86.2584L159.351 94.0477L158.682 93.7853L161.713 83.7692L161.188 83.1935C160.117 83.9641 159.088 84.7923 158.107 85.6742C154.771 88.9254 151.663 92.4475 148.141 95.4701C145.601 97.6799 145.059 100.406 144.924 103.378C144.788 106.35 144.924 109.432 144.924 113.419C144.17 110.736 143.654 108.907 143.146 107.086C142.299 104.03 143.756 100.034 139.327 98.5605C142.384 96.5115 145.33 94.8521 147.896 92.7269C150.461 90.6018 152.679 87.9602 155.042 85.5557L154.534 84.7598L147.193 87.5707C145.847 82.3722 144.484 77.1313 142.96 71.3317L134.112 77.4192C136.093 71.7127 141.114 69.5537 144.67 66.0231C137.897 68.2667 133.316 73.1435 128.888 78.9093C127 75.9799 125.307 73.3637 123.613 70.739C128.219 72.4323 132.368 72.4323 135.89 68.199C137.135 66.7004 139.277 65.9045 140.97 64.8123C141.969 64.1858 143.019 63.6355 144.111 63.0089C141.029 59.4445 138.777 58.9449 134.882 61.0701C131.856 62.6436 128.96 64.4556 126.221 66.4887C125.027 67.4709 124.562 69.4267 123.749 70.8575ZM184.116 144.357C182.169 148.344 180.84 152.044 178.689 155.169C177.822 156.295 177.309 157.654 177.215 159.072C177.122 160.491 177.452 161.905 178.164 163.136C179.398 165.822 180.99 168.328 182.897 170.586C188.578 176.776 194.564 182.677 200.389 188.739C202.133 190.559 203.412 189.882 204.445 188.121C205.833 185.767 206.985 183.261 208.382 180.924C214.943 170.146 214.308 162.577 206.002 153.213C203.86 150.808 201.574 148.539 199.356 146.202L198.509 146.66L199.661 152.679L199.271 152.823L193.887 143.933C192.193 146.152 190.652 148.167 188.951 150.343L184.116 144.357ZM188.502 146.465C191.127 142.951 193.514 139.802 195.859 136.618C198.399 133.138 201.151 129.769 203.429 126.111C205.969 122.098 205.122 119.6 201.676 116.366C196.156 111.235 190.805 105.952 188.739 98.2895C188.485 97.3667 187.333 96.6978 186.605 95.9019C185.759 96.7486 184.65 97.3921 184.235 98.3657C183.151 100.906 182.372 103.624 181.475 106.257L180.941 106.18V101.422L180.044 100.719C178.782 102.252 177.394 103.7 176.285 105.334C174.456 108.043 172.855 105.901 170.9 104.885C170.586 106.375 169.985 107.611 170.155 108.729C170.849 113.309 170.722 118.432 172.839 122.276C177.402 130.666 183.159 138.379 188.502 146.473V146.465ZM210.185 96.3676C206.739 93.7429 203.759 91.2876 200.626 89.1117C195.639 85.5895 195.597 85.6573 191.846 90.4325C191.273 90.9814 190.751 91.5823 190.288 92.2274C189.882 92.8785 189.723 93.6534 189.84 94.4118C190.83 97.1889 191.685 100.101 193.184 102.608C201.32 116.154 214.85 122.081 228.744 127.389C229.65 121.615 226.627 109.059 223.571 102.294C220.794 96.139 216.179 93.9546 209.787 93.9377C209.923 94.6658 210.016 95.2923 210.185 96.3676ZM218.965 162.171C223.063 155.465 225.239 149.157 225.671 142.206C226.053 137.591 224.712 132.997 221.907 129.312C219.102 125.627 215.032 123.111 210.481 122.25C209.536 122.199 208.587 122.253 207.653 122.411L210.024 128.651L209.55 128.863L206.426 126.077C204.284 129.269 202.269 132.156 200.398 135.128C198.526 138.1 198.272 141.097 201.041 143.806C204.368 147.058 207.73 150.283 210.989 153.611C213.589 156.261 216.052 159.038 218.965 162.171ZM159.419 65.1933L158.919 64.1604L164.787 60.2403C157.751 59.9101 151.96 62.2808 148.014 67.9535C144.831 72.5255 146.194 77.5716 147.718 82.3468C147.896 82.9225 149.521 83.4983 150.326 83.3374C153.45 82.7024 156.506 81.788 159.58 80.9413C167.986 78.6883 175.674 74.3155 181.906 68.2413C185.293 64.9732 183.913 62.1369 180.298 60.1133C178.604 59.1735 176.064 59.182 174.083 59.5376C171.78 59.9525 169.647 61.2309 167.42 62.1284C164.761 63.2375 162.086 64.2112 159.419 65.1933ZM173.338 195.927L165.947 201.854L164.482 197.62L163.314 198.12C163.127 195.461 163.314 192.811 162.687 190.381C161.699 187.118 160.48 183.929 159.038 180.84C157.802 177.919 156.286 177.792 154.542 180.577C152.62 183.659 151.155 187.012 149.166 190.068C147.413 192.794 146.863 195.58 148.15 198.476C150.306 203.598 152.737 208.601 155.431 213.462C156.185 214.774 159.08 216.002 160.511 215.578C164.642 214.427 168.581 212.675 172.204 210.38C177.707 206.68 177.969 201.93 173.338 195.944V195.927ZM167.081 197.273C172.297 194.124 176.886 191.601 181.195 188.654C183.507 187.079 185.428 184.861 187.35 182.812C188.832 181.254 188.866 179.671 187.063 178.147C184.819 176.251 182.685 174.219 180.416 172.17L177.224 174.981C179.079 169.901 177.36 165.786 174.151 161.273C170.764 164.507 167.378 167.259 164.643 170.493C163.3 172.118 162.638 174.2 162.797 176.301C163.872 183.083 165.506 189.806 167.081 197.273ZM184.514 69.596C180.281 72.8218 175.506 76.2762 170.967 79.9761C169.934 80.8228 169.469 82.4738 169.003 83.8454C166.404 91.5501 170.299 97.6969 173.575 103.59C178.173 99.0515 182.745 94.5727 187.274 90.043C188.476 88.8407 189.95 87.6723 190.542 86.1822C191.206 84.6001 191.272 82.831 190.729 81.2038C188.934 77.1991 186.631 73.4483 184.514 69.5706V69.596ZM206.265 67.056L204.783 67.6487L209.296 75.692C205.063 71.5349 201.024 67.4455 196.842 63.5085C195.064 61.8151 192.879 61.2987 190.559 62.6618C188.062 64.135 188.256 66.3363 188.993 68.6477C189.34 69.723 189.746 70.7898 190.178 71.8397C193.226 79.2226 198.755 84.4465 205.486 88.2481C209.55 90.5425 214.105 92.2105 219.625 90.9489L206.265 67.056ZM190.915 182.88C187.444 186.106 184.599 189.653 180.933 191.905C177.267 194.158 176.911 196.384 178.012 200.211C180.602 209.203 180.408 209.262 188.46 204.597C198.23 198.899 199.271 188.485 190.915 182.88ZM233.172 116.535C234.019 115.502 234.298 115.316 234.281 115.164C233.341 105.427 232.529 95.6479 228.354 86.6225C225.679 80.8905 220.607 77.9018 214.596 75.9206C216.458 80.5926 218.874 85.0242 221.793 89.1201C223.249 91.0421 224.57 92.0327 222.86 93.1757C225.23 99.2717 227.355 104.961 229.692 110.566C230.471 112.522 231.834 114.3 233.172 116.51V116.535ZM173.059 52.2732L173.524 50.9778C175.48 51.5789 177.419 52.2563 179.409 52.7473C180.154 52.9421 181.415 53.0183 181.72 52.6119C182.118 52.07 182.143 50.5291 181.72 50.2412C179.883 48.9373 177.952 47.3287 175.844 46.9392C172.864 46.3804 169.706 46.6767 166.632 46.8376C163.982 46.9731 161.349 47.4218 158.555 47.752C160.46 52.9082 172.872 57.2601 177.08 54.5677L173.059 52.2732ZM139.7 51.0794C140.36 55.6091 142.46 58.5893 146.169 60.3927C147.862 61.2394 149.758 62.5771 150.69 59.3513C150.825 58.8941 152.154 58.6317 152.959 58.5047C154.268 58.4792 155.577 58.5386 156.879 58.6825L153.416 55.5413L153.831 54.7709L162.348 57.3955L162.577 56.4388C155.787 51.8922 148.167 50.927 139.7 51.0794ZM217.263 66.3787C209.067 58.7587 201.922 56.0917 198.095 59.1905C201.778 61.8236 205.376 64.5837 209.161 67.056C211.878 68.834 214.655 68.58 217.263 66.3787ZM233.519 86.7833C232.562 80.3063 226.907 72.8133 222.072 71.0438C219.854 70.1971 217.703 70.1971 216.797 71.9667L233.519 86.7833ZM197.9 47.9721L203.251 45.212L202.353 43.561C200.838 44.4839 199.314 45.4067 197.807 46.3381C197.792 46.8844 197.823 47.431 197.9 47.9721Z" fill="#E0E0E0"/>
</svg>
